<svg viewBox="0 -1800 2000 2000" xmlns="http://www.w3.org/2000/svg">
<path d="M349,182 L148,182 L85,0 L16,0 L241,619 Q206,623,182,648 Q158,673,158,707 Q158,743,185,769 Q213,795,250,795 Q287,795,314,769 Q341,743,341,706 Q341,673,317,648 Q294,623,259,619 L484,0 L412,0 z M209,688 Q209,688,221,675 Q234,662,251,662 Q268,662,280,675 Q292,688,292,707 Q292,727,280,740 Q268,753,251,753 Q233,753,221,740 Q209,727,209,707 z M331,236 L249,474 L167,236 z" fill="black" fill-rule="nonzero" stroke-width="0" transform="scale(1,-1)"/>
</svg>